<svg width="32" height="32" viewBox="0 0 32 32" fill="none" xmlns="http://www.w3.org/2000/svg">
<g clip-path="url(#clip0_6_668)">
<path d="M29.3611 2.99054L29.3584 2.98759C27.6665 1.07429 25.3743 -0.00018626 22.9845 -0.00018626C20.5948 -0.00018626 18.3025 1.07429 16.6106 2.98759L15.9969 3.68333L15.3839 2.98759C13.6933 1.07107 11.4004 -0.00561525 9.00965 -0.00561523C6.61884 -0.00561521 4.32596 1.07107 2.63541 2.98759C0.94486 4.90411 -0.00488279 7.50347 -0.00488281 10.2138C-0.00488283 12.9242 0.94486 15.5236 2.63541 17.4401L15.1139 31.5857C15.3482 31.8509 15.6658 31.9998 15.9969 31.9998C16.328 31.9998 16.6456 31.8509 16.88 31.5857L29.3585 17.4401C30.1957 16.4916 30.8599 15.3654 31.3131 14.1259C31.7663 12.8863 31.9997 11.5577 32 10.2159C32.0002 8.87414 31.7673 7.54543 31.3145 6.30569C30.8618 5.06594 30.198 3.93945 29.3612 2.99054H29.3611ZM27.5923 15.4379L15.9969 28.5824L4.40156 15.4379C3.17942 14.0524 2.49282 12.1732 2.49282 10.2138C2.49282 8.25445 3.17942 6.37531 4.40156 4.98981C5.6237 3.60431 7.28128 2.82595 9.00965 2.82595C10.738 2.82595 12.3956 3.60431 13.6177 4.98981L15.1139 6.68666C15.2298 6.81816 15.3675 6.92248 15.519 6.99365C15.6705 7.06482 15.8329 7.10145 15.9969 7.10145C16.1609 7.10145 16.3234 7.06482 16.4749 6.99365C16.6264 6.92248 16.7641 6.81816 16.88 6.68666L18.3794 4.98685C19.602 3.60555 21.2576 2.82982 22.9836 2.82954C24.7097 2.82925 26.3655 3.60444 27.5884 4.98534L27.6002 4.99865C28.8194 6.38465 29.5034 8.26266 29.502 10.2201C29.5005 12.1775 28.8137 14.0542 27.5923 15.4378V15.4379Z" fill="#464C54"/>
</g>
<defs>
<clipPath id="clip0_6_668">
<rect width="32" height="32" fill="white"/>
</clipPath>
</defs>
</svg>
