<svg width="122" height="129" viewBox="0 0 122 129" fill="none" xmlns="http://www.w3.org/2000/svg">
<path d="M6.82964 63.6341L59.0502 5.98183L92.2076 96.5831L14.963 85.8107C4.27822 84.3256 -0.378958 71.5915 6.82964 63.6341Z" fill="#627148"/>
<path d="M93.8128 97.7796C106.303 93.2581 108.751 68.6105 99.2806 42.7277C89.8106 16.8449 72.0088 -0.471816 59.519 4.04975C47.0293 8.57132 44.5813 33.2189 54.0513 59.1017C63.5213 84.9845 81.3231 102.301 93.8128 97.7796Z" fill="#BFCC58"/>
<path d="M70.0024 39.1635C76.9436 36.6477 84.609 40.2053 87.1382 47.1098C89.6673 54.0143 86.0909 61.6392 79.1496 64.155L78.1023 64.5318C74.771 65.7399 70.0247 61.1184 67.4955 54.2138C64.9664 47.3093 65.6238 40.7372 68.9551 39.5292" fill="#464C54"/>
<path d="M98.1683 15.779C97.3438 15.779 96.5194 15.4797 95.8732 14.8702C94.5362 13.6067 94.4805 11.501 95.7394 10.1711L99.1599 6.56922C100.43 5.23929 102.547 5.18388 103.884 6.43622C105.221 7.69965 105.277 9.80537 104.018 11.1353L100.597 14.7372C99.9398 15.4354 99.0596 15.779 98.1683 15.779Z" fill="#464C54"/>
<path d="M103.75 59.0237C102.792 53.7705 101.31 48.2735 99.2825 42.721L103.75 59.0237Z" fill="white"/>
<path d="M120.641 34.9853C120.006 33.2564 118.089 32.3698 116.351 33.0015C116.351 33.0015 98.2017 39.5736 98.1349 39.5957C96.3968 40.2274 95.5055 42.1337 96.1406 43.8626C98.0681 49.1158 99.5165 54.4133 100.463 59.6111C100.753 61.2181 102.157 62.3485 103.75 62.3485C103.951 62.3485 104.151 62.3264 104.352 62.2931C106.168 61.9717 107.371 60.2428 107.048 58.4363C106.224 53.9035 105.032 49.3153 103.516 44.7381L118.658 39.2522C120.385 38.6204 121.276 36.7142 120.641 34.9853Z" fill="#464C54"/>
<path d="M76.9659 68.0672C72.2307 68.0672 67.2059 63.1465 64.3536 55.3664C62.9609 51.5651 62.3816 47.6861 62.7047 44.4278C63.2506 38.8753 66.1363 37.0356 67.8075 36.4261C67.9858 36.3596 68.164 36.3152 68.3423 36.282C68.4983 36.1933 68.6766 36.1157 68.8548 36.0492C73.0441 34.5309 77.5898 34.7304 81.6342 36.6034C85.6786 38.4764 88.7537 41.8123 90.2801 45.9794C91.8065 50.1465 91.6059 54.6682 89.723 58.6912C87.8401 62.7143 84.4865 65.7731 80.2972 67.2914L79.2499 67.6682C78.5034 67.9342 77.7347 68.0672 76.9659 68.0672ZM70.604 42.444C70.4481 42.5326 70.2698 42.6102 70.0915 42.6767C69.3339 43.2087 68.554 47.4312 70.6263 53.0945C72.6987 58.7577 76.0634 61.5063 76.9882 61.4065L78.0021 61.0408C80.5201 60.132 82.5255 58.2923 83.662 55.8873C84.7984 53.4713 84.9098 50.7671 83.9962 48.2624C83.0826 45.7577 81.2331 43.7628 78.8154 42.6324C76.3865 41.5019 73.668 41.3911 71.15 42.2999C70.9717 42.3553 70.7823 42.4107 70.604 42.444Z" fill="#464C54"/>
<path d="M119.75 75.0272L98.0458 67.5574C96.2965 66.9589 94.4025 67.8788 93.7897 69.6077C93.188 71.3477 94.1128 73.2318 95.8509 73.8413L101.611 75.8251C101.043 85.8328 97.7672 92.8038 92.6644 94.6547C87.9626 96.3503 81.5785 93.7348 75.1275 87.462C67.9635 80.502 61.5905 70.0178 57.1785 57.9598C52.7664 45.9018 50.8723 33.7995 51.8639 23.8915C52.7441 14.9699 55.9529 8.87442 60.6435 7.16768C68.8883 4.18643 81.4782 14.3936 90.5809 31.4278C91.45 33.0458 93.4777 33.6665 95.1044 32.802C96.7311 31.9376 97.355 29.9316 96.486 28.3024C85.4558 7.65532 70.1361 -3.34982 58.3595 0.905945C53.1006 2.81217 49.2122 7.45583 47.0062 14.2717L4.34507 61.4065C0.111274 66.0723 -1.1143 72.3895 1.04717 78.2855C3.20863 84.1926 8.23349 88.2378 14.4839 89.1133L17.9712 89.6009V120.134C17.9712 125.021 21.9711 129 26.8845 129H49.1677C54.0811 129 58.0809 125.021 58.0809 120.134V103.942C58.0809 102.102 56.5879 100.617 54.7384 100.617C52.8889 100.617 51.396 102.102 51.396 103.942V120.134C51.396 121.353 50.3932 122.35 49.1677 122.35H26.8845C25.6589 122.35 24.6562 121.353 24.6562 120.134V90.5319L77.6121 97.913C81.7345 100.495 85.8012 101.825 89.6227 101.825C91.4611 101.825 93.2438 101.515 94.9596 100.905C102.38 98.2233 107.07 89.9888 108.151 78.0749L117.566 81.3222C117.933 81.4441 118.301 81.5106 118.658 81.5106C120.039 81.5106 121.343 80.6461 121.811 79.2719C122.424 77.5208 121.499 75.6256 119.75 75.0272ZM24.6562 83.8158V72.4781C24.6562 70.6384 23.1632 69.1533 21.3137 69.1533C19.4642 69.1533 17.9712 70.6384 17.9712 72.4781V82.8848L15.4087 82.5302C11.6428 82.0093 8.62344 79.5711 7.31988 76.0135C6.01631 72.456 6.7628 68.6657 9.30308 65.8507L45.0007 26.4405C44.5662 36.6477 46.6162 48.4951 50.9057 60.2207C55.1952 71.9462 61.2785 82.3418 68.2086 89.878L24.6562 83.8158Z" fill="#464C54"/>
</svg>
