<svg width="23" height="19" viewBox="0 0 23 19" fill="none" xmlns="http://www.w3.org/2000/svg">
<path d="M22.14 1.03027C20.9932 -0.139483 19.1347 -0.139483 17.988 1.03027L7.60755 11.6177L5.01208 8.97051C3.86533 7.80076 2.00681 7.80076 0.860062 8.97051C-0.286687 10.1403 -0.286687 12.0362 0.860062 13.2052L5.53117 17.9697C6.67792 19.1395 8.53644 19.1395 9.68319 17.9697L22.14 5.26568C23.2868 4.09593 23.2868 2.20002 22.14 1.03027ZM21.1025 4.20665C21.1025 4.20665 8.83913 16.7145 8.64576 16.9115C8.07275 17.496 7.14315 17.496 6.56938 16.9115C6.56938 16.9115 1.86881 12.1167 1.85441 12.1009C1.32454 11.5135 1.33965 10.5989 1.89752 10.0295C2.47054 9.44502 3.40018 9.44502 3.97391 10.0295L7.60684 13.7351L19.0261 2.0893C19.5992 1.50478 20.5288 1.50478 21.1025 2.0893C21.6756 2.67382 21.6756 3.62213 21.1025 4.20665Z" fill="#464C54"/>
</svg>
