<svg width="36" height="32" viewBox="0 0 36 32" fill="none" xmlns="http://www.w3.org/2000/svg">
<path d="M31.5 4.5H28.125L27 2.25C26.3374 0.940471 25.9931 0 24.75 0H11.25C10.0069 0 9.59624 1.07324 9 2.25L7.875 4.5H4.5C2.01488 4.5 0 6.51488 0 9V27C0 29.4851 2.01488 31.5 4.5 31.5H31.5C33.9851 31.5 36 29.4851 36 27V9C36 6.51488 33.9851 4.5 31.5 4.5ZM33.75 27C33.75 28.2431 32.7431 29.25 31.5 29.25H4.5C3.25688 29.25 2.25 28.2431 2.25 27V9C2.25 7.758 3.25688 6.75 4.5 6.75H9L10.125 4.5C10.9204 3.19165 11.1319 2.25 12.375 2.25H23.625C24.8681 2.25 25.0796 3.19047 25.875 4.5L27 6.75H31.5C32.7431 6.75 33.75 7.75688 33.75 9V27ZM18 9C13.0298 9 9 13.0298 9 18C9 22.9702 13.0298 27 18 27C22.9702 27 27 22.9702 27 18C27 13.0298 22.9702 9 18 9ZM18 24.75C14.2718 24.75 11.25 21.7282 11.25 18C11.25 14.2718 14.2718 11.25 18 11.25C21.7282 11.25 24.75 14.2718 24.75 18C24.75 21.7282 21.7282 24.75 18 24.75Z" fill="#464C54"/>
</svg>
