<svg width="464" height="595" viewBox="0 0 464 595" fill="none" xmlns="http://www.w3.org/2000/svg">
<path d="M84.41 415C90.57 415 95.6333 416.26 99.6 418.78C103.567 421.253 105.597 424.94 105.69 429.84V430.68H91.2V430.4C91.2 429 90.6867 427.833 89.66 426.9C88.6333 425.967 87.07 425.5 84.97 425.5C82.9167 425.5 81.33 425.803 80.21 426.41C79.1367 427.017 78.6 427.763 78.6 428.65C78.6 429.91 79.3467 430.843 80.84 431.45C82.3333 432.057 84.7367 432.687 88.05 433.34C91.9233 434.133 95.0967 434.973 97.57 435.86C100.09 436.7 102.283 438.1 104.15 440.06C106.017 442.02 106.973 444.68 107.02 448.04C107.02 453.733 105.083 457.957 101.21 460.71C97.3833 463.463 92.25 464.84 85.81 464.84C78.2967 464.84 72.44 463.58 68.24 461.06C64.0867 458.54 62.01 454.083 62.01 447.69H76.64C76.64 450.117 77.27 451.75 78.53 452.59C79.79 453.383 81.75 453.78 84.41 453.78C86.37 453.78 87.98 453.57 89.24 453.15C90.5467 452.73 91.2 451.867 91.2 450.56C91.2 449.393 90.4767 448.53 89.03 447.97C87.63 447.363 85.32 446.733 82.1 446.08C78.18 445.24 74.9367 444.377 72.37 443.49C69.8033 442.557 67.5633 441.04 65.65 438.94C63.7367 436.84 62.78 433.993 62.78 430.4C62.78 425.127 64.81 421.253 68.87 418.78C72.9767 416.26 78.1567 415 84.41 415ZM131.988 426.2C137.634 426.2 142.231 427.157 145.778 429.07C149.324 430.937 151.098 433.993 151.098 438.24V452.66C151.098 453.453 151.284 454.107 151.658 454.62C152.031 455.133 152.591 455.39 153.338 455.39H155.858V463.44C155.718 463.533 155.344 463.697 154.738 463.93C154.178 464.117 153.361 464.303 152.288 464.49C151.214 464.723 149.978 464.84 148.578 464.84C145.871 464.84 143.631 464.443 141.858 463.65C140.131 462.81 138.941 461.667 138.288 460.22C136.514 461.62 134.531 462.74 132.338 463.58C130.144 464.42 127.578 464.84 124.638 464.84C115.958 464.84 111.618 461.387 111.618 454.48C111.618 450.887 112.574 448.157 114.488 446.29C116.448 444.377 119.248 443.07 122.888 442.37C126.528 441.67 131.288 441.32 137.168 441.32V439.5C137.168 438.053 136.654 436.957 135.628 436.21C134.648 435.463 133.364 435.09 131.778 435.09C130.331 435.09 129.071 435.347 127.998 435.86C126.971 436.373 126.458 437.19 126.458 438.31V438.59H112.738C112.691 438.357 112.668 438.03 112.668 437.61C112.668 434.11 114.324 431.333 117.638 429.28C120.998 427.227 125.781 426.2 131.988 426.2ZM137.168 447.9C133.201 447.9 130.261 448.343 128.348 449.23C126.481 450.07 125.548 451.213 125.548 452.66C125.548 454.993 127.134 456.16 130.308 456.16C132.128 456.16 133.714 455.67 135.068 454.69C136.468 453.71 137.168 452.497 137.168 451.05V447.9ZM182.877 426.13C183.95 426.13 184.907 426.27 185.747 426.55C186.587 426.783 187.007 426.923 187.007 426.97V438.66H182.527C179.634 438.66 177.534 439.407 176.227 440.9C174.967 442.393 174.337 444.61 174.337 447.55V464H160.407V427.04H171.817L172.727 432.64C173.567 430.493 174.897 428.883 176.717 427.81C178.537 426.69 180.59 426.13 182.877 426.13ZM210.943 426.2C216.589 426.2 221.186 427.157 224.733 429.07C228.279 430.937 230.053 433.993 230.053 438.24V452.66C230.053 453.453 230.239 454.107 230.613 454.62C230.986 455.133 231.546 455.39 232.293 455.39H234.813V463.44C234.673 463.533 234.299 463.697 233.693 463.93C233.133 464.117 232.316 464.303 231.243 464.49C230.169 464.723 228.933 464.84 227.533 464.84C224.826 464.84 222.586 464.443 220.813 463.65C219.086 462.81 217.896 461.667 217.243 460.22C215.469 461.62 213.486 462.74 211.293 463.58C209.099 464.42 206.533 464.84 203.593 464.84C194.913 464.84 190.573 461.387 190.573 454.48C190.573 450.887 191.529 448.157 193.443 446.29C195.403 444.377 198.203 443.07 201.843 442.37C205.483 441.67 210.243 441.32 216.123 441.32V439.5C216.123 438.053 215.609 436.957 214.583 436.21C213.603 435.463 212.319 435.09 210.733 435.09C209.286 435.09 208.026 435.347 206.953 435.86C205.926 436.373 205.413 437.19 205.413 438.31V438.59H191.693C191.646 438.357 191.623 438.03 191.623 437.61C191.623 434.11 193.279 431.333 196.593 429.28C199.953 427.227 204.736 426.2 210.943 426.2ZM216.123 447.9C212.156 447.9 209.216 448.343 207.303 449.23C205.436 450.07 204.503 451.213 204.503 452.66C204.503 454.993 206.089 456.16 209.263 456.16C211.083 456.16 212.669 455.67 214.023 454.69C215.423 453.71 216.123 452.497 216.123 451.05V447.9ZM240.342 415.84H279.262V427.39H255.812V435.65H275.972V446.71H255.812V464H240.342V415.84ZM312.862 464L311.952 458.4C310.505 460.407 308.592 461.993 306.212 463.16C303.878 464.28 301.405 464.84 298.792 464.84C294.498 464.84 291.278 463.65 289.132 461.27C286.985 458.89 285.912 455.46 285.912 450.98V427.04H299.842V449.3C299.842 450.887 300.238 452.17 301.032 453.15C301.872 454.083 303.038 454.55 304.532 454.55C306.258 454.55 307.658 453.99 308.732 452.87C309.805 451.75 310.342 450.373 310.342 448.74V427.04H324.272V464H312.862ZM358.221 426.2C362.514 426.2 365.734 427.39 367.881 429.77C370.028 432.15 371.101 435.58 371.101 440.06V464H357.171V441.74C357.171 440.153 356.751 438.893 355.911 437.96C355.118 436.98 353.974 436.49 352.481 436.49C350.754 436.49 349.354 437.05 348.281 438.17C347.208 439.29 346.671 440.667 346.671 442.3V464H332.741V427.04H344.151L345.061 432.64C346.508 430.68 348.398 429.117 350.731 427.95C353.111 426.783 355.608 426.2 358.221 426.2Z" fill="#BFCC58"/>
<path d="M0.784091 542.614V533.557H2.34091C2.86364 533.14 3.35227 532.553 3.80682 531.795C4.26136 531.038 4.64773 530 4.96591 528.682C5.28409 527.364 5.50379 525.659 5.625 523.568L6.23864 513.727H21.1136V533.557H23.7045V542.591H19.6591V537H4.82955V542.614H0.784091ZM7.25 533.557H17.0682V517.261H10.0341L9.67045 523.568C9.57197 525.152 9.41288 526.568 9.19318 527.818C8.97349 529.068 8.69697 530.17 8.36364 531.125C8.0303 532.072 7.65909 532.883 7.25 533.557ZM26.9574 543.545V519.545H31.0028V522.432H31.2415C31.4536 522.008 31.7528 521.557 32.1392 521.08C32.5256 520.595 33.0483 520.182 33.7074 519.841C34.3665 519.492 35.2074 519.318 36.2301 519.318C37.5786 519.318 38.7945 519.663 39.8778 520.352C40.9688 521.034 41.8324 522.045 42.4688 523.386C43.1127 524.72 43.4347 526.356 43.4347 528.295C43.4347 530.212 43.1203 531.841 42.4915 533.182C41.8627 534.523 41.0066 535.545 39.9233 536.25C38.84 536.955 37.6127 537.307 36.2415 537.307C35.2415 537.307 34.4119 537.14 33.7528 536.807C33.0938 536.473 32.5634 536.072 32.1619 535.602C31.768 535.125 31.4612 534.674 31.2415 534.25H31.071V543.545H26.9574ZM30.9915 528.273C30.9915 529.402 31.1506 530.39 31.4688 531.239C31.7945 532.087 32.2604 532.75 32.8665 533.227C33.4801 533.697 34.2225 533.932 35.0938 533.932C36.0028 533.932 36.7642 533.689 37.3778 533.205C37.9915 532.712 38.4536 532.042 38.7642 531.193C39.0824 530.337 39.2415 529.364 39.2415 528.273C39.2415 527.189 39.0862 526.227 38.7756 525.386C38.465 524.545 38.0028 523.886 37.3892 523.409C36.7756 522.932 36.0104 522.693 35.0938 522.693C34.215 522.693 33.4688 522.924 32.8551 523.386C32.2415 523.848 31.7756 524.496 31.4574 525.33C31.1468 526.163 30.9915 527.144 30.9915 528.273ZM48.9205 543.545C48.3598 543.545 47.8409 543.5 47.3636 543.409C46.8939 543.326 46.5189 543.227 46.2386 543.114L47.1932 539.909C47.7917 540.083 48.3258 540.167 48.7955 540.159C49.2652 540.152 49.678 540.004 50.0341 539.716C50.3977 539.436 50.7045 538.966 50.9545 538.307L51.3068 537.364L44.9773 519.545H49.3409L53.3636 532.727H53.5455L57.5795 519.545H61.9545L54.9659 539.114C54.6402 540.038 54.2083 540.83 53.6705 541.489C53.1326 542.155 52.4735 542.663 51.6932 543.011C50.9205 543.367 49.9962 543.545 48.9205 543.545ZM63.6648 537L70.108 527.989L63.7216 519.545H68.4716L73.4375 526.58H74.4148V519.545H78.5284V526.58H79.483L84.4489 519.545H89.1989L82.8466 527.989L89.2557 537H84.4034L79.4375 529.955H78.5284V537H74.4148V529.955H73.5057L68.517 537H63.6648ZM96.2983 531.432L103.287 519.545H107.514V537H103.537V525.102L96.571 537H92.3324V519.545H96.2983V531.432ZM114.273 537.25C113.583 537.25 112.992 537.008 112.5 536.523C112.008 536.038 111.765 535.447 111.773 534.75C111.765 534.068 112.008 533.485 112.5 533C112.992 532.515 113.583 532.273 114.273 532.273C114.939 532.273 115.519 532.515 116.011 533C116.511 533.485 116.765 534.068 116.773 534.75C116.765 535.212 116.644 535.633 116.409 536.011C116.182 536.39 115.879 536.693 115.5 536.92C115.129 537.14 114.72 537.25 114.273 537.25ZM147.409 513.727V537H143.227V517.227H133.045V537H128.864V513.727H147.409ZM156.236 531.432L163.224 519.545H167.452V537H163.474V525.102L156.509 537H152.27V519.545H156.236V531.432ZM171.676 519.545H175.642V533.614H181.131V519.545H185.097V533.614H190.585V519.545H194.551V537H171.676V519.545ZM202.673 531.432L209.662 519.545H213.889V537H209.912V525.102L202.946 537H198.707V519.545H202.673V531.432ZM220.648 537.25C219.958 537.25 219.367 537.008 218.875 536.523C218.383 536.038 218.14 535.447 218.148 534.75C218.14 534.068 218.383 533.485 218.875 533C219.367 532.515 219.958 532.273 220.648 532.273C221.314 532.273 221.894 532.515 222.386 533C222.886 533.485 223.14 534.068 223.148 534.75C223.14 535.212 223.019 535.633 222.784 536.011C222.557 536.39 222.254 536.693 221.875 536.92C221.504 537.14 221.095 537.25 220.648 537.25ZM234.795 537V513.727H239.011V523.58H249.795V513.727H254.023V537H249.795V527.114H239.011V537H234.795ZM263.449 537.352C262.343 537.352 261.347 537.155 260.46 536.761C259.581 536.36 258.884 535.769 258.369 534.989C257.862 534.208 257.608 533.246 257.608 532.102C257.608 531.117 257.79 530.303 258.153 529.659C258.517 529.015 259.013 528.5 259.642 528.114C260.271 527.727 260.979 527.436 261.767 527.239C262.563 527.034 263.384 526.886 264.233 526.795C265.256 526.689 266.085 526.595 266.722 526.511C267.358 526.42 267.82 526.284 268.108 526.102C268.403 525.913 268.551 525.621 268.551 525.227V525.159C268.551 524.303 268.297 523.64 267.79 523.17C267.282 522.701 266.551 522.466 265.597 522.466C264.589 522.466 263.79 522.686 263.199 523.125C262.616 523.564 262.222 524.083 262.017 524.682L258.176 524.136C258.479 523.076 258.979 522.189 259.676 521.477C260.373 520.758 261.225 520.22 262.233 519.864C263.241 519.5 264.354 519.318 265.574 519.318C266.415 519.318 267.252 519.417 268.085 519.614C268.919 519.811 269.68 520.136 270.369 520.591C271.059 521.038 271.612 521.648 272.028 522.42C272.453 523.193 272.665 524.159 272.665 525.318V537H268.71V534.602H268.574C268.324 535.087 267.972 535.542 267.517 535.966C267.07 536.383 266.506 536.72 265.824 536.977C265.15 537.227 264.358 537.352 263.449 537.352ZM264.517 534.33C265.343 534.33 266.059 534.167 266.665 533.841C267.271 533.508 267.737 533.068 268.062 532.523C268.396 531.977 268.562 531.383 268.562 530.739V528.682C268.434 528.788 268.214 528.886 267.903 528.977C267.6 529.068 267.259 529.148 266.881 529.216C266.502 529.284 266.127 529.345 265.756 529.398C265.384 529.451 265.063 529.496 264.79 529.534C264.176 529.617 263.627 529.754 263.142 529.943C262.657 530.133 262.275 530.398 261.994 530.739C261.714 531.072 261.574 531.504 261.574 532.034C261.574 532.792 261.85 533.364 262.403 533.75C262.956 534.136 263.661 534.33 264.517 534.33ZM284.415 537.341C282.672 537.341 281.176 536.958 279.926 536.193C278.684 535.428 277.725 534.371 277.051 533.023C276.384 531.667 276.051 530.106 276.051 528.341C276.051 526.568 276.392 525.004 277.074 523.648C277.756 522.284 278.718 521.223 279.96 520.466C281.21 519.701 282.688 519.318 284.392 519.318C285.809 519.318 287.063 519.58 288.153 520.102C289.252 520.617 290.127 521.348 290.778 522.295C291.43 523.235 291.801 524.333 291.892 525.591H287.96C287.801 524.75 287.422 524.049 286.824 523.489C286.233 522.92 285.441 522.636 284.449 522.636C283.608 522.636 282.869 522.864 282.233 523.318C281.597 523.765 281.1 524.409 280.744 525.25C280.396 526.091 280.222 527.098 280.222 528.273C280.222 529.462 280.396 530.485 280.744 531.341C281.093 532.189 281.581 532.845 282.21 533.307C282.847 533.761 283.593 533.989 284.449 533.989C285.055 533.989 285.597 533.875 286.074 533.648C286.559 533.413 286.964 533.076 287.29 532.636C287.616 532.197 287.839 531.663 287.96 531.034H291.892C291.794 532.269 291.43 533.364 290.801 534.318C290.172 535.265 289.316 536.008 288.233 536.545C287.15 537.076 285.877 537.341 284.415 537.341ZM294.065 537L294.043 533.614H294.645C295.099 533.614 295.482 533.511 295.793 533.307C296.103 533.102 296.361 532.761 296.565 532.284C296.77 531.799 296.929 531.148 297.043 530.33C297.156 529.511 297.236 528.492 297.281 527.273L297.588 519.545H310.315V537H306.338V522.92H301.327L301.054 528.545C300.986 530 300.823 531.261 300.565 532.33C300.315 533.39 299.959 534.265 299.497 534.955C299.043 535.644 298.471 536.159 297.781 536.5C297.092 536.833 296.277 537 295.338 537H294.065ZM319.48 537.352C318.374 537.352 317.378 537.155 316.491 536.761C315.613 536.36 314.916 535.769 314.401 534.989C313.893 534.208 313.639 533.246 313.639 532.102C313.639 531.117 313.821 530.303 314.185 529.659C314.548 529.015 315.045 528.5 315.673 528.114C316.302 527.727 317.01 527.436 317.798 527.239C318.594 527.034 319.416 526.886 320.264 526.795C321.287 526.689 322.116 526.595 322.753 526.511C323.389 526.42 323.851 526.284 324.139 526.102C324.435 525.913 324.582 525.621 324.582 525.227V525.159C324.582 524.303 324.329 523.64 323.821 523.17C323.313 522.701 322.582 522.466 321.628 522.466C320.62 522.466 319.821 522.686 319.23 523.125C318.647 523.564 318.253 524.083 318.048 524.682L314.207 524.136C314.51 523.076 315.01 522.189 315.707 521.477C316.404 520.758 317.257 520.22 318.264 519.864C319.272 519.5 320.385 519.318 321.605 519.318C322.446 519.318 323.283 519.417 324.116 519.614C324.95 519.811 325.711 520.136 326.401 520.591C327.09 521.038 327.643 521.648 328.06 522.42C328.484 523.193 328.696 524.159 328.696 525.318V537H324.741V534.602H324.605C324.355 535.087 324.003 535.542 323.548 535.966C323.101 536.383 322.537 536.72 321.855 536.977C321.181 537.227 320.389 537.352 319.48 537.352ZM320.548 534.33C321.374 534.33 322.09 534.167 322.696 533.841C323.302 533.508 323.768 533.068 324.094 532.523C324.427 531.977 324.594 531.383 324.594 530.739V528.682C324.465 528.788 324.245 528.886 323.935 528.977C323.632 529.068 323.291 529.148 322.912 529.216C322.533 529.284 322.158 529.345 321.787 529.398C321.416 529.451 321.094 529.496 320.821 529.534C320.207 529.617 319.658 529.754 319.173 529.943C318.688 530.133 318.306 530.398 318.026 530.739C317.745 531.072 317.605 531.504 317.605 532.034C317.605 532.792 317.882 533.364 318.435 533.75C318.988 534.136 319.692 534.33 320.548 534.33ZM331.696 537L338.139 527.989L331.753 519.545H336.503L341.469 526.58H342.446V519.545H346.56V526.58H347.514L352.48 519.545H357.23L350.878 527.989L357.287 537H352.435L347.469 529.955H346.56V537H342.446V529.955H341.537L336.548 537H331.696ZM358.818 542.068V533.614H360.205C360.576 533.326 360.886 532.936 361.136 532.443C361.386 531.943 361.591 531.356 361.75 530.682C361.917 530 362.053 529.239 362.159 528.398C362.265 527.549 362.36 526.636 362.443 525.659L362.943 519.545H375.557V533.614H378.261V542.068H374.284V537H362.864V542.068H358.818ZM364.432 533.614H371.625V522.864H366.511L366.239 525.659C366.087 527.508 365.886 529.091 365.636 530.409C365.386 531.727 364.985 532.795 364.432 533.614ZM386.355 537.352C385.249 537.352 384.253 537.155 383.366 536.761C382.488 536.36 381.791 535.769 381.276 534.989C380.768 534.208 380.514 533.246 380.514 532.102C380.514 531.117 380.696 530.303 381.06 529.659C381.423 529.015 381.92 528.5 382.548 528.114C383.177 527.727 383.885 527.436 384.673 527.239C385.469 527.034 386.291 526.886 387.139 526.795C388.162 526.689 388.991 526.595 389.628 526.511C390.264 526.42 390.726 526.284 391.014 526.102C391.31 525.913 391.457 525.621 391.457 525.227V525.159C391.457 524.303 391.204 523.64 390.696 523.17C390.188 522.701 389.457 522.466 388.503 522.466C387.495 522.466 386.696 522.686 386.105 523.125C385.522 523.564 385.128 524.083 384.923 524.682L381.082 524.136C381.385 523.076 381.885 522.189 382.582 521.477C383.279 520.758 384.132 520.22 385.139 519.864C386.147 519.5 387.26 519.318 388.48 519.318C389.321 519.318 390.158 519.417 390.991 519.614C391.825 519.811 392.586 520.136 393.276 520.591C393.965 521.038 394.518 521.648 394.935 522.42C395.359 523.193 395.571 524.159 395.571 525.318V537H391.616V534.602H391.48C391.23 535.087 390.878 535.542 390.423 535.966C389.976 536.383 389.412 536.72 388.73 536.977C388.056 537.227 387.264 537.352 386.355 537.352ZM387.423 534.33C388.249 534.33 388.965 534.167 389.571 533.841C390.177 533.508 390.643 533.068 390.969 532.523C391.302 531.977 391.469 531.383 391.469 530.739V528.682C391.34 528.788 391.12 528.886 390.81 528.977C390.507 529.068 390.166 529.148 389.787 529.216C389.408 529.284 389.033 529.345 388.662 529.398C388.291 529.451 387.969 529.496 387.696 529.534C387.082 529.617 386.533 529.754 386.048 529.943C385.563 530.133 385.181 530.398 384.901 530.739C384.62 531.072 384.48 531.504 384.48 532.034C384.48 532.792 384.757 533.364 385.31 533.75C385.863 534.136 386.567 534.33 387.423 534.33ZM403.673 531.432L410.662 519.545H414.889V537H410.912V525.102L403.946 537H399.707V519.545H403.673V531.432ZM409.537 513.545H412.616C412.616 514.871 412.135 515.947 411.173 516.773C410.219 517.591 408.923 518 407.287 518C405.666 518 404.374 517.591 403.412 516.773C402.457 515.947 401.984 514.871 401.991 513.545H405.048C405.048 514.091 405.215 514.58 405.548 515.011C405.889 515.436 406.469 515.648 407.287 515.648C408.09 515.648 408.662 515.436 409.003 515.011C409.351 514.587 409.529 514.098 409.537 513.545ZM426.727 537.341C424.985 537.341 423.489 536.958 422.239 536.193C420.996 535.428 420.038 534.371 419.364 533.023C418.697 531.667 418.364 530.106 418.364 528.341C418.364 526.568 418.705 525.004 419.386 523.648C420.068 522.284 421.03 521.223 422.273 520.466C423.523 519.701 425 519.318 426.705 519.318C428.121 519.318 429.375 519.58 430.466 520.102C431.564 520.617 432.439 521.348 433.091 522.295C433.742 523.235 434.114 524.333 434.205 525.591H430.273C430.114 524.75 429.735 524.049 429.136 523.489C428.545 522.92 427.754 522.636 426.761 522.636C425.92 522.636 425.182 522.864 424.545 523.318C423.909 523.765 423.413 524.409 423.057 525.25C422.708 526.091 422.534 527.098 422.534 528.273C422.534 529.462 422.708 530.485 423.057 531.341C423.405 532.189 423.894 532.845 424.523 533.307C425.159 533.761 425.905 533.989 426.761 533.989C427.367 533.989 427.909 533.875 428.386 533.648C428.871 533.413 429.277 533.076 429.602 532.636C429.928 532.197 430.152 531.663 430.273 531.034H434.205C434.106 532.269 433.742 533.364 433.114 534.318C432.485 535.265 431.629 536.008 430.545 536.545C429.462 537.076 428.189 537.341 426.727 537.341ZM447.901 537V522.886H444.173C443.226 522.886 442.499 523.106 441.991 523.545C441.484 523.985 441.234 524.53 441.241 525.182C441.234 525.833 441.473 526.371 441.957 526.795C442.442 527.22 443.135 527.432 444.037 527.432H449.196V530.432H444.037C442.643 530.432 441.438 530.212 440.423 529.773C439.408 529.333 438.628 528.712 438.082 527.909C437.537 527.106 437.264 526.167 437.264 525.091C437.264 523.97 437.541 522.996 438.094 522.17C438.654 521.337 439.45 520.693 440.48 520.239C441.518 519.777 442.749 519.545 444.173 519.545H451.753V537H447.901ZM436.628 537L441.503 528.045H445.56L440.673 537H436.628ZM458.429 537.25C457.74 537.25 457.149 537.008 456.656 536.523C456.164 536.038 455.921 535.447 455.929 534.75C455.921 534.068 456.164 533.485 456.656 533C457.149 532.515 457.74 532.273 458.429 532.273C459.096 532.273 459.675 532.515 460.168 533C460.668 533.485 460.921 534.068 460.929 534.75C460.921 535.212 460.8 535.633 460.565 536.011C460.338 536.39 460.035 536.693 459.656 536.92C459.285 537.14 458.876 537.25 458.429 537.25Z" fill="#627148"/>
<path d="M81.0122 178.084L226.382 16.7405L318.685 270.293L103.654 240.146C73.9096 235.99 60.9451 200.353 81.0122 178.084Z" fill="#627148"/>
<path d="M323.154 273.642C357.922 260.988 364.737 192.01 338.375 119.576C312.012 47.1414 262.456 -1.3204 227.687 11.3335C192.919 23.9873 186.104 92.9651 212.467 165.4C238.829 237.834 288.385 286.296 323.154 273.642Z" fill="#BFCC58"/>
<path d="M256.871 109.601C276.193 102.561 297.532 112.517 304.573 131.839C311.613 151.162 301.657 172.501 282.335 179.542L279.419 180.596C270.145 183.977 256.933 171.043 249.892 151.721C242.852 132.398 244.682 114.005 253.955 110.625" fill="#464C54"/>
<path d="M335.278 44.1583C332.983 44.1583 330.688 43.3209 328.889 41.615C325.167 38.0792 325.012 32.1863 328.517 28.4644L338.039 18.3843C341.574 14.6625 347.467 14.5074 351.189 18.0121C354.911 21.5479 355.066 27.4409 351.561 31.1628L342.04 41.2428C340.21 43.1968 337.76 44.1583 335.278 44.1583Z" fill="#464C54"/>
<path d="M350.817 165.181C348.15 150.48 344.025 135.096 338.38 119.557Z" fill="white"/>
<path d="M397.837 97.9084C396.069 93.0699 390.734 90.5887 385.896 92.3566C385.896 92.3566 335.371 110.749 335.185 110.811C330.347 112.579 327.866 117.913 329.633 122.752C334.999 137.453 339.031 152.279 341.668 166.825C342.474 171.322 346.382 174.486 350.817 174.486C351.375 174.486 351.934 174.424 352.492 174.331C357.547 173.431 360.897 168.593 359.998 163.537C357.703 150.852 354.384 138.012 350.166 125.202L392.316 109.849C397.123 108.082 399.605 102.747 397.837 97.9084Z" fill="#464C54"/>
<path d="M276.256 190.49C263.074 190.49 249.086 176.719 241.146 154.946C237.269 144.308 235.656 133.452 236.556 124.334C238.075 108.795 246.108 103.646 250.761 101.94C251.257 101.754 251.753 101.63 252.249 101.537C252.684 101.289 253.18 101.072 253.676 100.886C265.338 96.6368 277.992 97.195 289.251 102.437C300.51 107.678 309.07 117.014 313.319 128.676C317.568 140.338 317.01 152.992 311.768 164.251C306.527 175.509 297.191 184.07 285.529 188.319L282.614 189.373C280.536 190.118 278.396 190.49 276.256 190.49ZM258.546 118.782C258.111 119.03 257.615 119.247 257.119 119.433C255.01 120.922 252.839 132.739 258.608 148.588C264.377 164.437 273.743 172.129 276.318 171.85L279.14 170.826C286.149 168.283 291.732 163.134 294.896 156.404C298.06 149.642 298.37 142.075 295.826 135.065C293.283 128.056 288.135 122.473 281.404 119.309C274.643 116.146 267.075 115.835 260.065 118.379C259.569 118.534 259.042 118.689 258.546 118.782Z" fill="#464C54"/>
<path d="M395.356 209.968L334.937 189.063C330.068 187.388 324.795 189.963 323.089 194.801C321.414 199.671 323.989 204.943 328.827 206.649L344.862 212.201C343.28 240.208 334.162 259.717 319.957 264.897C306.868 269.642 289.096 262.322 271.138 244.767C251.195 225.29 233.454 195.949 221.172 162.204C208.89 128.459 203.617 94.5897 206.377 66.8617C208.828 41.8942 217.76 24.8356 230.818 20.0592C253.769 11.716 288.817 40.2814 314.157 87.9524C316.576 92.4807 322.221 94.2175 326.749 91.7983C331.277 89.3791 333.014 83.7653 330.595 79.206C299.889 21.4239 257.243 -9.37466 224.459 2.53534C209.82 7.87003 198.996 20.8656 192.855 39.9402L74.0957 171.85C62.3098 184.907 58.898 202.586 64.9151 219.086C70.9321 235.618 84.9202 246.938 102.32 249.389L112.028 250.753V336.201C112.028 349.879 123.162 361.014 136.84 361.014H198.872C212.549 361.014 223.684 349.879 223.684 336.201V290.888C223.684 285.739 219.528 281.583 214.379 281.583C209.231 281.583 205.075 285.739 205.075 290.888V336.201C205.075 339.613 202.283 342.405 198.872 342.405H136.84C133.429 342.405 130.637 339.613 130.637 336.201V253.359L278.054 274.015C289.53 281.242 300.851 284.964 311.489 284.964C316.607 284.964 321.569 284.095 326.346 282.389C347.002 274.884 360.06 251.839 363.068 218.497L389.276 227.585C390.3 227.926 391.324 228.112 392.316 228.112C396.162 228.112 399.791 225.693 401.093 221.847C402.799 216.946 400.225 211.643 395.356 209.968ZM130.637 234.563V202.834C130.637 197.686 126.481 193.53 121.332 193.53C116.184 193.53 112.028 197.686 112.028 202.834V231.958L104.894 230.965C94.4109 229.508 86.0057 222.684 82.3769 212.728C78.748 202.772 80.8261 192.165 87.8976 184.287L187.272 73.9953C186.062 102.561 191.769 135.716 203.71 168.531C215.651 201.345 232.586 230.438 251.877 251.529L130.637 234.563Z" fill="#464C54"/>
</svg>
