<svg width="469" height="595" viewBox="0 0 469 595" fill="none" xmlns="http://www.w3.org/2000/svg">
<g filter="url(#filter0_d_3_9)">
<path d="M88.41 415C94.57 415 99.6333 416.26 103.6 418.78C107.567 421.253 109.597 424.94 109.69 429.84V430.68H95.2V430.4C95.2 429 94.6867 427.833 93.66 426.9C92.6333 425.967 91.07 425.5 88.97 425.5C86.9167 425.5 85.33 425.803 84.21 426.41C83.1367 427.017 82.6 427.763 82.6 428.65C82.6 429.91 83.3467 430.843 84.84 431.45C86.3333 432.057 88.7367 432.687 92.05 433.34C95.9233 434.133 99.0967 434.973 101.57 435.86C104.09 436.7 106.283 438.1 108.15 440.06C110.017 442.02 110.973 444.68 111.02 448.04C111.02 453.733 109.083 457.957 105.21 460.71C101.383 463.463 96.25 464.84 89.81 464.84C82.2967 464.84 76.44 463.58 72.24 461.06C68.0867 458.54 66.01 454.083 66.01 447.69H80.64C80.64 450.117 81.27 451.75 82.53 452.59C83.79 453.383 85.75 453.78 88.41 453.78C90.37 453.78 91.98 453.57 93.24 453.15C94.5467 452.73 95.2 451.867 95.2 450.56C95.2 449.393 94.4767 448.53 93.03 447.97C91.63 447.363 89.32 446.733 86.1 446.08C82.18 445.24 78.9367 444.377 76.37 443.49C73.8033 442.557 71.5633 441.04 69.65 438.94C67.7367 436.84 66.78 433.993 66.78 430.4C66.78 425.127 68.81 421.253 72.87 418.78C76.9767 416.26 82.1567 415 88.41 415ZM135.988 426.2C141.634 426.2 146.231 427.157 149.778 429.07C153.324 430.937 155.098 433.993 155.098 438.24V452.66C155.098 453.453 155.284 454.107 155.658 454.62C156.031 455.133 156.591 455.39 157.338 455.39H159.858V463.44C159.718 463.533 159.344 463.697 158.738 463.93C158.178 464.117 157.361 464.303 156.288 464.49C155.214 464.723 153.978 464.84 152.578 464.84C149.871 464.84 147.631 464.443 145.858 463.65C144.131 462.81 142.941 461.667 142.288 460.22C140.514 461.62 138.531 462.74 136.338 463.58C134.144 464.42 131.578 464.84 128.638 464.84C119.958 464.84 115.618 461.387 115.618 454.48C115.618 450.887 116.574 448.157 118.488 446.29C120.448 444.377 123.248 443.07 126.888 442.37C130.528 441.67 135.288 441.32 141.168 441.32V439.5C141.168 438.053 140.654 436.957 139.628 436.21C138.648 435.463 137.364 435.09 135.778 435.09C134.331 435.09 133.071 435.347 131.998 435.86C130.971 436.373 130.458 437.19 130.458 438.31V438.59H116.738C116.691 438.357 116.668 438.03 116.668 437.61C116.668 434.11 118.324 431.333 121.638 429.28C124.998 427.227 129.781 426.2 135.988 426.2ZM141.168 447.9C137.201 447.9 134.261 448.343 132.348 449.23C130.481 450.07 129.548 451.213 129.548 452.66C129.548 454.993 131.134 456.16 134.308 456.16C136.128 456.16 137.714 455.67 139.068 454.69C140.468 453.71 141.168 452.497 141.168 451.05V447.9ZM186.877 426.13C187.95 426.13 188.907 426.27 189.747 426.55C190.587 426.783 191.007 426.923 191.007 426.97V438.66H186.527C183.634 438.66 181.534 439.407 180.227 440.9C178.967 442.393 178.337 444.61 178.337 447.55V464H164.407V427.04H175.817L176.727 432.64C177.567 430.493 178.897 428.883 180.717 427.81C182.537 426.69 184.59 426.13 186.877 426.13ZM214.943 426.2C220.589 426.2 225.186 427.157 228.733 429.07C232.279 430.937 234.053 433.993 234.053 438.24V452.66C234.053 453.453 234.239 454.107 234.613 454.62C234.986 455.133 235.546 455.39 236.293 455.39H238.813V463.44C238.673 463.533 238.299 463.697 237.693 463.93C237.133 464.117 236.316 464.303 235.243 464.49C234.169 464.723 232.933 464.84 231.533 464.84C228.826 464.84 226.586 464.443 224.813 463.65C223.086 462.81 221.896 461.667 221.243 460.22C219.469 461.62 217.486 462.74 215.293 463.58C213.099 464.42 210.533 464.84 207.593 464.84C198.913 464.84 194.573 461.387 194.573 454.48C194.573 450.887 195.529 448.157 197.443 446.29C199.403 444.377 202.203 443.07 205.843 442.37C209.483 441.67 214.243 441.32 220.123 441.32V439.5C220.123 438.053 219.609 436.957 218.583 436.21C217.603 435.463 216.319 435.09 214.733 435.09C213.286 435.09 212.026 435.347 210.953 435.86C209.926 436.373 209.413 437.19 209.413 438.31V438.59H195.693C195.646 438.357 195.623 438.03 195.623 437.61C195.623 434.11 197.279 431.333 200.593 429.28C203.953 427.227 208.736 426.2 214.943 426.2ZM220.123 447.9C216.156 447.9 213.216 448.343 211.303 449.23C209.436 450.07 208.503 451.213 208.503 452.66C208.503 454.993 210.089 456.16 213.263 456.16C215.083 456.16 216.669 455.67 218.023 454.69C219.423 453.71 220.123 452.497 220.123 451.05V447.9ZM244.342 415.84H283.262V427.39H259.812V435.65H279.972V446.71H259.812V464H244.342V415.84ZM316.862 464L315.952 458.4C314.505 460.407 312.592 461.993 310.212 463.16C307.878 464.28 305.405 464.84 302.792 464.84C298.498 464.84 295.278 463.65 293.132 461.27C290.985 458.89 289.912 455.46 289.912 450.98V427.04H303.842V449.3C303.842 450.887 304.238 452.17 305.032 453.15C305.872 454.083 307.038 454.55 308.532 454.55C310.258 454.55 311.658 453.99 312.732 452.87C313.805 451.75 314.342 450.373 314.342 448.74V427.04H328.272V464H316.862ZM362.221 426.2C366.514 426.2 369.734 427.39 371.881 429.77C374.028 432.15 375.101 435.58 375.101 440.06V464H361.171V441.74C361.171 440.153 360.751 438.893 359.911 437.96C359.118 436.98 357.974 436.49 356.481 436.49C354.754 436.49 353.354 437.05 352.281 438.17C351.208 439.29 350.671 440.667 350.671 442.3V464H336.741V427.04H348.151L349.061 432.64C350.508 430.68 352.398 429.117 354.731 427.95C357.111 426.783 359.608 426.2 362.221 426.2Z" fill="#BFCC58"/>
<path d="M4.78409 542.614V533.557H6.34091C6.86364 533.14 7.35227 532.553 7.80682 531.795C8.26136 531.038 8.64773 530 8.96591 528.682C9.28409 527.364 9.50379 525.659 9.625 523.568L10.2386 513.727H25.1136V533.557H27.7045V542.591H23.6591V537H8.82955V542.614H4.78409ZM11.25 533.557H21.0682V517.261H14.0341L13.6705 523.568C13.572 525.152 13.4129 526.568 13.1932 527.818C12.9735 529.068 12.697 530.17 12.3636 531.125C12.0303 532.072 11.6591 532.883 11.25 533.557ZM30.9574 543.545V519.545H35.0028V522.432H35.2415C35.4536 522.008 35.7528 521.557 36.1392 521.08C36.5256 520.595 37.0483 520.182 37.7074 519.841C38.3665 519.492 39.2074 519.318 40.2301 519.318C41.5786 519.318 42.7945 519.663 43.8778 520.352C44.9688 521.034 45.8324 522.045 46.4688 523.386C47.1127 524.72 47.4347 526.356 47.4347 528.295C47.4347 530.212 47.1203 531.841 46.4915 533.182C45.8627 534.523 45.0066 535.545 43.9233 536.25C42.84 536.955 41.6127 537.307 40.2415 537.307C39.2415 537.307 38.4119 537.14 37.7528 536.807C37.0938 536.473 36.5634 536.072 36.1619 535.602C35.768 535.125 35.4612 534.674 35.2415 534.25H35.071V543.545H30.9574ZM34.9915 528.273C34.9915 529.402 35.1506 530.39 35.4688 531.239C35.7945 532.087 36.2604 532.75 36.8665 533.227C37.4801 533.697 38.2225 533.932 39.0938 533.932C40.0028 533.932 40.7642 533.689 41.3778 533.205C41.9915 532.712 42.4536 532.042 42.7642 531.193C43.0824 530.337 43.2415 529.364 43.2415 528.273C43.2415 527.189 43.0862 526.227 42.7756 525.386C42.465 524.545 42.0028 523.886 41.3892 523.409C40.7756 522.932 40.0104 522.693 39.0938 522.693C38.215 522.693 37.4688 522.924 36.8551 523.386C36.2415 523.848 35.7756 524.496 35.4574 525.33C35.1468 526.163 34.9915 527.144 34.9915 528.273ZM52.9205 543.545C52.3598 543.545 51.8409 543.5 51.3636 543.409C50.8939 543.326 50.5189 543.227 50.2386 543.114L51.1932 539.909C51.7917 540.083 52.3258 540.167 52.7955 540.159C53.2652 540.152 53.678 540.004 54.0341 539.716C54.3977 539.436 54.7045 538.966 54.9545 538.307L55.3068 537.364L48.9773 519.545H53.3409L57.3636 532.727H57.5455L61.5795 519.545H65.9545L58.9659 539.114C58.6402 540.038 58.2083 540.83 57.6705 541.489C57.1326 542.155 56.4735 542.663 55.6932 543.011C54.9205 543.367 53.9962 543.545 52.9205 543.545ZM67.6648 537L74.108 527.989L67.7216 519.545H72.4716L77.4375 526.58H78.4148V519.545H82.5284V526.58H83.483L88.4489 519.545H93.1989L86.8466 527.989L93.2557 537H88.4034L83.4375 529.955H82.5284V537H78.4148V529.955H77.5057L72.517 537H67.6648ZM100.298 531.432L107.287 519.545H111.514V537H107.537V525.102L100.571 537H96.3324V519.545H100.298V531.432ZM118.273 537.25C117.583 537.25 116.992 537.008 116.5 536.523C116.008 536.038 115.765 535.447 115.773 534.75C115.765 534.068 116.008 533.485 116.5 533C116.992 532.515 117.583 532.273 118.273 532.273C118.939 532.273 119.519 532.515 120.011 533C120.511 533.485 120.765 534.068 120.773 534.75C120.765 535.212 120.644 535.633 120.409 536.011C120.182 536.39 119.879 536.693 119.5 536.92C119.129 537.14 118.72 537.25 118.273 537.25ZM151.409 513.727V537H147.227V517.227H137.045V537H132.864V513.727H151.409ZM160.236 531.432L167.224 519.545H171.452V537H167.474V525.102L160.509 537H156.27V519.545H160.236V531.432ZM175.676 519.545H179.642V533.614H185.131V519.545H189.097V533.614H194.585V519.545H198.551V537H175.676V519.545ZM206.673 531.432L213.662 519.545H217.889V537H213.912V525.102L206.946 537H202.707V519.545H206.673V531.432ZM224.648 537.25C223.958 537.25 223.367 537.008 222.875 536.523C222.383 536.038 222.14 535.447 222.148 534.75C222.14 534.068 222.383 533.485 222.875 533C223.367 532.515 223.958 532.273 224.648 532.273C225.314 532.273 225.894 532.515 226.386 533C226.886 533.485 227.14 534.068 227.148 534.75C227.14 535.212 227.019 535.633 226.784 536.011C226.557 536.39 226.254 536.693 225.875 536.92C225.504 537.14 225.095 537.25 224.648 537.25ZM238.795 537V513.727H243.011V523.58H253.795V513.727H258.023V537H253.795V527.114H243.011V537H238.795ZM267.449 537.352C266.343 537.352 265.347 537.155 264.46 536.761C263.581 536.36 262.884 535.769 262.369 534.989C261.862 534.208 261.608 533.246 261.608 532.102C261.608 531.117 261.79 530.303 262.153 529.659C262.517 529.015 263.013 528.5 263.642 528.114C264.271 527.727 264.979 527.436 265.767 527.239C266.563 527.034 267.384 526.886 268.233 526.795C269.256 526.689 270.085 526.595 270.722 526.511C271.358 526.42 271.82 526.284 272.108 526.102C272.403 525.913 272.551 525.621 272.551 525.227V525.159C272.551 524.303 272.297 523.64 271.79 523.17C271.282 522.701 270.551 522.466 269.597 522.466C268.589 522.466 267.79 522.686 267.199 523.125C266.616 523.564 266.222 524.083 266.017 524.682L262.176 524.136C262.479 523.076 262.979 522.189 263.676 521.477C264.373 520.758 265.225 520.22 266.233 519.864C267.241 519.5 268.354 519.318 269.574 519.318C270.415 519.318 271.252 519.417 272.085 519.614C272.919 519.811 273.68 520.136 274.369 520.591C275.059 521.038 275.612 521.648 276.028 522.42C276.453 523.193 276.665 524.159 276.665 525.318V537H272.71V534.602H272.574C272.324 535.087 271.972 535.542 271.517 535.966C271.07 536.383 270.506 536.72 269.824 536.977C269.15 537.227 268.358 537.352 267.449 537.352ZM268.517 534.33C269.343 534.33 270.059 534.167 270.665 533.841C271.271 533.508 271.737 533.068 272.062 532.523C272.396 531.977 272.562 531.383 272.562 530.739V528.682C272.434 528.788 272.214 528.886 271.903 528.977C271.6 529.068 271.259 529.148 270.881 529.216C270.502 529.284 270.127 529.345 269.756 529.398C269.384 529.451 269.063 529.496 268.79 529.534C268.176 529.617 267.627 529.754 267.142 529.943C266.657 530.133 266.275 530.398 265.994 530.739C265.714 531.072 265.574 531.504 265.574 532.034C265.574 532.792 265.85 533.364 266.403 533.75C266.956 534.136 267.661 534.33 268.517 534.33ZM288.415 537.341C286.672 537.341 285.176 536.958 283.926 536.193C282.684 535.428 281.725 534.371 281.051 533.023C280.384 531.667 280.051 530.106 280.051 528.341C280.051 526.568 280.392 525.004 281.074 523.648C281.756 522.284 282.718 521.223 283.96 520.466C285.21 519.701 286.688 519.318 288.392 519.318C289.809 519.318 291.063 519.58 292.153 520.102C293.252 520.617 294.127 521.348 294.778 522.295C295.43 523.235 295.801 524.333 295.892 525.591H291.96C291.801 524.75 291.422 524.049 290.824 523.489C290.233 522.92 289.441 522.636 288.449 522.636C287.608 522.636 286.869 522.864 286.233 523.318C285.597 523.765 285.1 524.409 284.744 525.25C284.396 526.091 284.222 527.098 284.222 528.273C284.222 529.462 284.396 530.485 284.744 531.341C285.093 532.189 285.581 532.845 286.21 533.307C286.847 533.761 287.593 533.989 288.449 533.989C289.055 533.989 289.597 533.875 290.074 533.648C290.559 533.413 290.964 533.076 291.29 532.636C291.616 532.197 291.839 531.663 291.96 531.034H295.892C295.794 532.269 295.43 533.364 294.801 534.318C294.172 535.265 293.316 536.008 292.233 536.545C291.15 537.076 289.877 537.341 288.415 537.341ZM298.065 537L298.043 533.614H298.645C299.099 533.614 299.482 533.511 299.793 533.307C300.103 533.102 300.361 532.761 300.565 532.284C300.77 531.799 300.929 531.148 301.043 530.33C301.156 529.511 301.236 528.492 301.281 527.273L301.588 519.545H314.315V537H310.338V522.92H305.327L305.054 528.545C304.986 530 304.823 531.261 304.565 532.33C304.315 533.39 303.959 534.265 303.497 534.955C303.043 535.644 302.471 536.159 301.781 536.5C301.092 536.833 300.277 537 299.338 537H298.065ZM323.48 537.352C322.374 537.352 321.378 537.155 320.491 536.761C319.613 536.36 318.916 535.769 318.401 534.989C317.893 534.208 317.639 533.246 317.639 532.102C317.639 531.117 317.821 530.303 318.185 529.659C318.548 529.015 319.045 528.5 319.673 528.114C320.302 527.727 321.01 527.436 321.798 527.239C322.594 527.034 323.416 526.886 324.264 526.795C325.287 526.689 326.116 526.595 326.753 526.511C327.389 526.42 327.851 526.284 328.139 526.102C328.435 525.913 328.582 525.621 328.582 525.227V525.159C328.582 524.303 328.329 523.64 327.821 523.17C327.313 522.701 326.582 522.466 325.628 522.466C324.62 522.466 323.821 522.686 323.23 523.125C322.647 523.564 322.253 524.083 322.048 524.682L318.207 524.136C318.51 523.076 319.01 522.189 319.707 521.477C320.404 520.758 321.257 520.22 322.264 519.864C323.272 519.5 324.385 519.318 325.605 519.318C326.446 519.318 327.283 519.417 328.116 519.614C328.95 519.811 329.711 520.136 330.401 520.591C331.09 521.038 331.643 521.648 332.06 522.42C332.484 523.193 332.696 524.159 332.696 525.318V537H328.741V534.602H328.605C328.355 535.087 328.003 535.542 327.548 535.966C327.101 536.383 326.537 536.72 325.855 536.977C325.181 537.227 324.389 537.352 323.48 537.352ZM324.548 534.33C325.374 534.33 326.09 534.167 326.696 533.841C327.302 533.508 327.768 533.068 328.094 532.523C328.427 531.977 328.594 531.383 328.594 530.739V528.682C328.465 528.788 328.245 528.886 327.935 528.977C327.632 529.068 327.291 529.148 326.912 529.216C326.533 529.284 326.158 529.345 325.787 529.398C325.416 529.451 325.094 529.496 324.821 529.534C324.207 529.617 323.658 529.754 323.173 529.943C322.688 530.133 322.306 530.398 322.026 530.739C321.745 531.072 321.605 531.504 321.605 532.034C321.605 532.792 321.882 533.364 322.435 533.75C322.988 534.136 323.692 534.33 324.548 534.33ZM335.696 537L342.139 527.989L335.753 519.545H340.503L345.469 526.58H346.446V519.545H350.56V526.58H351.514L356.48 519.545H361.23L354.878 527.989L361.287 537H356.435L351.469 529.955H350.56V537H346.446V529.955H345.537L340.548 537H335.696ZM362.818 542.068V533.614H364.205C364.576 533.326 364.886 532.936 365.136 532.443C365.386 531.943 365.591 531.356 365.75 530.682C365.917 530 366.053 529.239 366.159 528.398C366.265 527.549 366.36 526.636 366.443 525.659L366.943 519.545H379.557V533.614H382.261V542.068H378.284V537H366.864V542.068H362.818ZM368.432 533.614H375.625V522.864H370.511L370.239 525.659C370.087 527.508 369.886 529.091 369.636 530.409C369.386 531.727 368.985 532.795 368.432 533.614ZM390.355 537.352C389.249 537.352 388.253 537.155 387.366 536.761C386.488 536.36 385.791 535.769 385.276 534.989C384.768 534.208 384.514 533.246 384.514 532.102C384.514 531.117 384.696 530.303 385.06 529.659C385.423 529.015 385.92 528.5 386.548 528.114C387.177 527.727 387.885 527.436 388.673 527.239C389.469 527.034 390.291 526.886 391.139 526.795C392.162 526.689 392.991 526.595 393.628 526.511C394.264 526.42 394.726 526.284 395.014 526.102C395.31 525.913 395.457 525.621 395.457 525.227V525.159C395.457 524.303 395.204 523.64 394.696 523.17C394.188 522.701 393.457 522.466 392.503 522.466C391.495 522.466 390.696 522.686 390.105 523.125C389.522 523.564 389.128 524.083 388.923 524.682L385.082 524.136C385.385 523.076 385.885 522.189 386.582 521.477C387.279 520.758 388.132 520.22 389.139 519.864C390.147 519.5 391.26 519.318 392.48 519.318C393.321 519.318 394.158 519.417 394.991 519.614C395.825 519.811 396.586 520.136 397.276 520.591C397.965 521.038 398.518 521.648 398.935 522.42C399.359 523.193 399.571 524.159 399.571 525.318V537H395.616V534.602H395.48C395.23 535.087 394.878 535.542 394.423 535.966C393.976 536.383 393.412 536.72 392.73 536.977C392.056 537.227 391.264 537.352 390.355 537.352ZM391.423 534.33C392.249 534.33 392.965 534.167 393.571 533.841C394.177 533.508 394.643 533.068 394.969 532.523C395.302 531.977 395.469 531.383 395.469 530.739V528.682C395.34 528.788 395.12 528.886 394.81 528.977C394.507 529.068 394.166 529.148 393.787 529.216C393.408 529.284 393.033 529.345 392.662 529.398C392.291 529.451 391.969 529.496 391.696 529.534C391.082 529.617 390.533 529.754 390.048 529.943C389.563 530.133 389.181 530.398 388.901 530.739C388.62 531.072 388.48 531.504 388.48 532.034C388.48 532.792 388.757 533.364 389.31 533.75C389.863 534.136 390.567 534.33 391.423 534.33ZM407.673 531.432L414.662 519.545H418.889V537H414.912V525.102L407.946 537H403.707V519.545H407.673V531.432ZM413.537 513.545H416.616C416.616 514.871 416.135 515.947 415.173 516.773C414.219 517.591 412.923 518 411.287 518C409.666 518 408.374 517.591 407.412 516.773C406.457 515.947 405.984 514.871 405.991 513.545H409.048C409.048 514.091 409.215 514.58 409.548 515.011C409.889 515.436 410.469 515.648 411.287 515.648C412.09 515.648 412.662 515.436 413.003 515.011C413.351 514.587 413.529 514.098 413.537 513.545ZM430.727 537.341C428.985 537.341 427.489 536.958 426.239 536.193C424.996 535.428 424.038 534.371 423.364 533.023C422.697 531.667 422.364 530.106 422.364 528.341C422.364 526.568 422.705 525.004 423.386 523.648C424.068 522.284 425.03 521.223 426.273 520.466C427.523 519.701 429 519.318 430.705 519.318C432.121 519.318 433.375 519.58 434.466 520.102C435.564 520.617 436.439 521.348 437.091 522.295C437.742 523.235 438.114 524.333 438.205 525.591H434.273C434.114 524.75 433.735 524.049 433.136 523.489C432.545 522.92 431.754 522.636 430.761 522.636C429.92 522.636 429.182 522.864 428.545 523.318C427.909 523.765 427.413 524.409 427.057 525.25C426.708 526.091 426.534 527.098 426.534 528.273C426.534 529.462 426.708 530.485 427.057 531.341C427.405 532.189 427.894 532.845 428.523 533.307C429.159 533.761 429.905 533.989 430.761 533.989C431.367 533.989 431.909 533.875 432.386 533.648C432.871 533.413 433.277 533.076 433.602 532.636C433.928 532.197 434.152 531.663 434.273 531.034H438.205C438.106 532.269 437.742 533.364 437.114 534.318C436.485 535.265 435.629 536.008 434.545 536.545C433.462 537.076 432.189 537.341 430.727 537.341ZM451.901 537V522.886H448.173C447.226 522.886 446.499 523.106 445.991 523.545C445.484 523.985 445.234 524.53 445.241 525.182C445.234 525.833 445.473 526.371 445.957 526.795C446.442 527.22 447.135 527.432 448.037 527.432H453.196V530.432H448.037C446.643 530.432 445.438 530.212 444.423 529.773C443.408 529.333 442.628 528.712 442.082 527.909C441.537 527.106 441.264 526.167 441.264 525.091C441.264 523.97 441.541 522.996 442.094 522.17C442.654 521.337 443.45 520.693 444.48 520.239C445.518 519.777 446.749 519.545 448.173 519.545H455.753V537H451.901ZM440.628 537L445.503 528.045H449.56L444.673 537H440.628ZM462.429 537.25C461.74 537.25 461.149 537.008 460.656 536.523C460.164 536.038 459.921 535.447 459.929 534.75C459.921 534.068 460.164 533.485 460.656 533C461.149 532.515 461.74 532.273 462.429 532.273C463.096 532.273 463.675 532.515 464.168 533C464.668 533.485 464.921 534.068 464.929 534.75C464.921 535.212 464.8 535.633 464.565 536.011C464.338 536.39 464.035 536.693 463.656 536.92C463.285 537.14 462.876 537.25 462.429 537.25Z" fill="#627148"/>
<path d="M85.0122 178.084L230.382 16.7405L322.685 270.293L107.654 240.146C77.9096 235.99 64.9451 200.353 85.0122 178.084Z" fill="#627148"/>
<path d="M327.154 273.642C361.922 260.988 368.737 192.01 342.375 119.576C316.012 47.1414 266.456 -1.3204 231.687 11.3335C196.919 23.9873 190.104 92.9651 216.467 165.4C242.829 237.834 292.385 286.296 327.154 273.642Z" fill="#BFCC58"/>
<path d="M260.871 109.601C280.193 102.561 301.532 112.517 308.573 131.839C315.613 151.162 305.657 172.501 286.335 179.542L283.419 180.596C274.145 183.977 260.933 171.043 253.892 151.721C246.852 132.398 248.682 114.006 257.955 110.625" fill="#464C54"/>
<path d="M339.278 44.1583C336.983 44.1583 334.688 43.3209 332.889 41.615C329.167 38.0792 329.012 32.1863 332.517 28.4644L342.039 18.3843C345.574 14.6625 351.467 14.5074 355.189 18.0121C358.911 21.5479 359.066 27.4409 355.561 31.1628L346.04 41.2428C344.21 43.1968 341.76 44.1583 339.278 44.1583Z" fill="#464C54"/>
<path d="M354.817 165.181C352.15 150.48 348.025 135.096 342.38 119.557L354.817 165.181Z" fill="white"/>
<path d="M401.837 97.9084C400.069 93.0699 394.734 90.5887 389.896 92.3566C389.896 92.3566 339.371 110.749 339.185 110.811C334.347 112.579 331.866 117.913 333.633 122.752C338.999 137.453 343.031 152.279 345.668 166.825C346.474 171.322 350.382 174.486 354.817 174.486C355.375 174.486 355.934 174.424 356.492 174.331C361.547 173.431 364.897 168.593 363.998 163.537C361.703 150.852 358.384 138.012 354.166 125.202L396.316 109.849C401.123 108.082 403.605 102.747 401.837 97.9084Z" fill="#464C54"/>
<path d="M280.256 190.49C267.074 190.49 253.086 176.719 245.146 154.946C241.269 144.308 239.656 133.452 240.556 124.334C242.075 108.795 250.108 103.646 254.761 101.94C255.257 101.754 255.753 101.63 256.249 101.537C256.684 101.289 257.18 101.072 257.676 100.886C269.338 96.6368 281.992 97.195 293.251 102.437C304.51 107.678 313.07 117.014 317.319 128.676C321.568 140.338 321.01 152.992 315.768 164.251C310.527 175.509 301.191 184.07 289.529 188.319L286.614 189.373C284.536 190.118 282.396 190.49 280.256 190.49ZM262.546 118.782C262.111 119.03 261.615 119.247 261.119 119.433C259.01 120.922 256.839 132.739 262.608 148.588C268.377 164.437 277.743 172.129 280.318 171.85L283.14 170.826C290.15 168.283 295.732 163.134 298.896 156.404C302.06 149.642 302.37 142.075 299.826 135.065C297.283 128.056 292.135 122.473 285.404 119.309C278.643 116.146 271.075 115.835 264.065 118.379C263.569 118.534 263.042 118.689 262.546 118.782Z" fill="#464C54"/>
<path d="M399.356 209.968L338.937 189.063C334.068 187.388 328.795 189.963 327.089 194.801C325.414 199.671 327.989 204.943 332.827 206.649L348.862 212.201C347.28 240.208 338.162 259.717 323.957 264.897C310.868 269.642 293.096 262.322 275.138 244.767C255.195 225.29 237.454 195.949 225.172 162.204C212.89 128.459 207.617 94.5897 210.377 66.8617C212.828 41.8942 221.76 24.8356 234.818 20.0592C257.769 11.716 292.817 40.2814 318.157 87.9524C320.576 92.4807 326.221 94.2175 330.749 91.7983C335.277 89.3791 337.014 83.7653 334.595 79.206C303.889 21.4239 261.243 -9.37466 228.459 2.53534C213.82 7.87003 202.996 20.8656 196.855 39.9402L78.0957 171.85C66.3098 184.907 62.898 202.586 68.9151 219.086C74.9321 235.618 88.9202 246.938 106.32 249.389L116.028 250.753V336.201C116.028 349.879 127.162 361.014 140.84 361.014H202.872C216.549 361.014 227.684 349.879 227.684 336.201V290.888C227.684 285.739 223.528 281.583 218.379 281.583C213.231 281.583 209.075 285.739 209.075 290.888V336.201C209.075 339.613 206.283 342.405 202.872 342.405H140.84C137.429 342.405 134.637 339.613 134.637 336.201V253.359L282.054 274.015C293.53 281.242 304.851 284.964 315.489 284.964C320.607 284.964 325.569 284.095 330.346 282.389C351.002 274.884 364.06 251.839 367.068 218.497L393.276 227.585C394.3 227.926 395.324 228.112 396.316 228.112C400.162 228.112 403.791 225.693 405.093 221.847C406.799 216.946 404.225 211.643 399.356 209.968ZM134.637 234.563V202.834C134.637 197.686 130.481 193.53 125.332 193.53C120.184 193.53 116.028 197.686 116.028 202.834V231.958L108.894 230.965C98.4109 229.508 90.0057 222.684 86.3769 212.728C82.748 202.772 84.8261 192.165 91.8976 184.287L191.272 73.9953C190.062 102.561 195.769 135.716 207.71 168.531C219.651 201.345 236.586 230.438 255.877 251.529L134.637 234.563Z" fill="#464C54"/>
</g>
<defs>
<filter id="filter0_d_3_9" x="0.784088" y="0" width="468.145" height="551.545" filterUnits="userSpaceOnUse" color-interpolation-filters="sRGB">
<feFlood flood-opacity="0" result="BackgroundImageFix"/>
<feColorMatrix in="SourceAlpha" type="matrix" values="0 0 0 0 0 0 0 0 0 0 0 0 0 0 0 0 0 0 127 0" result="hardAlpha"/>
<feOffset dy="4"/>
<feGaussianBlur stdDeviation="2"/>
<feComposite in2="hardAlpha" operator="out"/>
<feColorMatrix type="matrix" values="0 0 0 0 0 0 0 0 0 0 0 0 0 0 0 0 0 0 0.25 0"/>
<feBlend mode="normal" in2="BackgroundImageFix" result="effect1_dropShadow_3_9"/>
<feBlend mode="normal" in="SourceGraphic" in2="effect1_dropShadow_3_9" result="shape"/>
</filter>
</defs>
</svg>
